%TF.GenerationSoftware,KiCad,Pcbnew,8.0.1*%
%TF.CreationDate,2024-04-22T22:39:20-04:00*%
%TF.ProjectId,Simple_LED,53696d70-6c65-45f4-9c45-442e6b696361,rev?*%
%TF.SameCoordinates,Original*%
%TF.FileFunction,Legend,Top*%
%TF.FilePolarity,Positive*%
%FSLAX46Y46*%
G04 Gerber Fmt 4.6, Leading zero omitted, Abs format (unit mm)*
G04 Created by KiCad (PCBNEW 8.0.1) date 2024-04-22 22:39:20*
%MOMM*%
%LPD*%
G01*
G04 APERTURE LIST*
%ADD10C,0.150000*%
%ADD11C,0.120000*%
%ADD12C,0.100000*%
G04 APERTURE END LIST*
D10*
X149774819Y-92166666D02*
X149298628Y-92499999D01*
X149774819Y-92738094D02*
X148774819Y-92738094D01*
X148774819Y-92738094D02*
X148774819Y-92357142D01*
X148774819Y-92357142D02*
X148822438Y-92261904D01*
X148822438Y-92261904D02*
X148870057Y-92214285D01*
X148870057Y-92214285D02*
X148965295Y-92166666D01*
X148965295Y-92166666D02*
X149108152Y-92166666D01*
X149108152Y-92166666D02*
X149203390Y-92214285D01*
X149203390Y-92214285D02*
X149251009Y-92261904D01*
X149251009Y-92261904D02*
X149298628Y-92357142D01*
X149298628Y-92357142D02*
X149298628Y-92738094D01*
X149774819Y-91214285D02*
X149774819Y-91785713D01*
X149774819Y-91499999D02*
X148774819Y-91499999D01*
X148774819Y-91499999D02*
X148917676Y-91595237D01*
X148917676Y-91595237D02*
X149012914Y-91690475D01*
X149012914Y-91690475D02*
X149060533Y-91785713D01*
X146799819Y-96738094D02*
X145799819Y-96738094D01*
X145799819Y-96738094D02*
X145799819Y-96499999D01*
X145799819Y-96499999D02*
X145847438Y-96357142D01*
X145847438Y-96357142D02*
X145942676Y-96261904D01*
X145942676Y-96261904D02*
X146037914Y-96214285D01*
X146037914Y-96214285D02*
X146228390Y-96166666D01*
X146228390Y-96166666D02*
X146371247Y-96166666D01*
X146371247Y-96166666D02*
X146561723Y-96214285D01*
X146561723Y-96214285D02*
X146656961Y-96261904D01*
X146656961Y-96261904D02*
X146752200Y-96357142D01*
X146752200Y-96357142D02*
X146799819Y-96499999D01*
X146799819Y-96499999D02*
X146799819Y-96738094D01*
X145895057Y-95785713D02*
X145847438Y-95738094D01*
X145847438Y-95738094D02*
X145799819Y-95642856D01*
X145799819Y-95642856D02*
X145799819Y-95404761D01*
X145799819Y-95404761D02*
X145847438Y-95309523D01*
X145847438Y-95309523D02*
X145895057Y-95261904D01*
X145895057Y-95261904D02*
X145990295Y-95214285D01*
X145990295Y-95214285D02*
X146085533Y-95214285D01*
X146085533Y-95214285D02*
X146228390Y-95261904D01*
X146228390Y-95261904D02*
X146799819Y-95833332D01*
X146799819Y-95833332D02*
X146799819Y-95214285D01*
X149799819Y-96738094D02*
X148799819Y-96738094D01*
X148799819Y-96738094D02*
X148799819Y-96499999D01*
X148799819Y-96499999D02*
X148847438Y-96357142D01*
X148847438Y-96357142D02*
X148942676Y-96261904D01*
X148942676Y-96261904D02*
X149037914Y-96214285D01*
X149037914Y-96214285D02*
X149228390Y-96166666D01*
X149228390Y-96166666D02*
X149371247Y-96166666D01*
X149371247Y-96166666D02*
X149561723Y-96214285D01*
X149561723Y-96214285D02*
X149656961Y-96261904D01*
X149656961Y-96261904D02*
X149752200Y-96357142D01*
X149752200Y-96357142D02*
X149799819Y-96499999D01*
X149799819Y-96499999D02*
X149799819Y-96738094D01*
X149799819Y-95214285D02*
X149799819Y-95785713D01*
X149799819Y-95499999D02*
X148799819Y-95499999D01*
X148799819Y-95499999D02*
X148942676Y-95595237D01*
X148942676Y-95595237D02*
X149037914Y-95690475D01*
X149037914Y-95690475D02*
X149085533Y-95785713D01*
X146774819Y-92166666D02*
X146298628Y-92499999D01*
X146774819Y-92738094D02*
X145774819Y-92738094D01*
X145774819Y-92738094D02*
X145774819Y-92357142D01*
X145774819Y-92357142D02*
X145822438Y-92261904D01*
X145822438Y-92261904D02*
X145870057Y-92214285D01*
X145870057Y-92214285D02*
X145965295Y-92166666D01*
X145965295Y-92166666D02*
X146108152Y-92166666D01*
X146108152Y-92166666D02*
X146203390Y-92214285D01*
X146203390Y-92214285D02*
X146251009Y-92261904D01*
X146251009Y-92261904D02*
X146298628Y-92357142D01*
X146298628Y-92357142D02*
X146298628Y-92738094D01*
X145870057Y-91785713D02*
X145822438Y-91738094D01*
X145822438Y-91738094D02*
X145774819Y-91642856D01*
X145774819Y-91642856D02*
X145774819Y-91404761D01*
X145774819Y-91404761D02*
X145822438Y-91309523D01*
X145822438Y-91309523D02*
X145870057Y-91261904D01*
X145870057Y-91261904D02*
X145965295Y-91214285D01*
X145965295Y-91214285D02*
X146060533Y-91214285D01*
X146060533Y-91214285D02*
X146203390Y-91261904D01*
X146203390Y-91261904D02*
X146774819Y-91833332D01*
X146774819Y-91833332D02*
X146774819Y-91214285D01*
X136691667Y-91607200D02*
X136834524Y-91654819D01*
X136834524Y-91654819D02*
X137072619Y-91654819D01*
X137072619Y-91654819D02*
X137167857Y-91607200D01*
X137167857Y-91607200D02*
X137215476Y-91559580D01*
X137215476Y-91559580D02*
X137263095Y-91464342D01*
X137263095Y-91464342D02*
X137263095Y-91369104D01*
X137263095Y-91369104D02*
X137215476Y-91273866D01*
X137215476Y-91273866D02*
X137167857Y-91226247D01*
X137167857Y-91226247D02*
X137072619Y-91178628D01*
X137072619Y-91178628D02*
X136882143Y-91131009D01*
X136882143Y-91131009D02*
X136786905Y-91083390D01*
X136786905Y-91083390D02*
X136739286Y-91035771D01*
X136739286Y-91035771D02*
X136691667Y-90940533D01*
X136691667Y-90940533D02*
X136691667Y-90845295D01*
X136691667Y-90845295D02*
X136739286Y-90750057D01*
X136739286Y-90750057D02*
X136786905Y-90702438D01*
X136786905Y-90702438D02*
X136882143Y-90654819D01*
X136882143Y-90654819D02*
X137120238Y-90654819D01*
X137120238Y-90654819D02*
X137263095Y-90702438D01*
X137596429Y-90654819D02*
X137834524Y-91654819D01*
X137834524Y-91654819D02*
X138025000Y-90940533D01*
X138025000Y-90940533D02*
X138215476Y-91654819D01*
X138215476Y-91654819D02*
X138453572Y-90654819D01*
X139358333Y-91654819D02*
X138786905Y-91654819D01*
X139072619Y-91654819D02*
X139072619Y-90654819D01*
X139072619Y-90654819D02*
X138977381Y-90797676D01*
X138977381Y-90797676D02*
X138882143Y-90892914D01*
X138882143Y-90892914D02*
X138786905Y-90940533D01*
X122939285Y-73631009D02*
X123082142Y-73678628D01*
X123082142Y-73678628D02*
X123129761Y-73726247D01*
X123129761Y-73726247D02*
X123177380Y-73821485D01*
X123177380Y-73821485D02*
X123177380Y-73964342D01*
X123177380Y-73964342D02*
X123129761Y-74059580D01*
X123129761Y-74059580D02*
X123082142Y-74107200D01*
X123082142Y-74107200D02*
X122986904Y-74154819D01*
X122986904Y-74154819D02*
X122605952Y-74154819D01*
X122605952Y-74154819D02*
X122605952Y-73154819D01*
X122605952Y-73154819D02*
X122939285Y-73154819D01*
X122939285Y-73154819D02*
X123034523Y-73202438D01*
X123034523Y-73202438D02*
X123082142Y-73250057D01*
X123082142Y-73250057D02*
X123129761Y-73345295D01*
X123129761Y-73345295D02*
X123129761Y-73440533D01*
X123129761Y-73440533D02*
X123082142Y-73535771D01*
X123082142Y-73535771D02*
X123034523Y-73583390D01*
X123034523Y-73583390D02*
X122939285Y-73631009D01*
X122939285Y-73631009D02*
X122605952Y-73631009D01*
X123463095Y-73154819D02*
X124034523Y-73154819D01*
X123748809Y-74154819D02*
X123748809Y-73154819D01*
X124891666Y-74154819D02*
X124320238Y-74154819D01*
X124605952Y-74154819D02*
X124605952Y-73154819D01*
X124605952Y-73154819D02*
X124510714Y-73297676D01*
X124510714Y-73297676D02*
X124415476Y-73392914D01*
X124415476Y-73392914D02*
X124320238Y-73440533D01*
D11*
%TO.C,R1*%
X150110000Y-92153641D02*
X150110000Y-91846359D01*
X150870000Y-92153641D02*
X150870000Y-91846359D01*
D12*
%TO.C,D2*%
X147565000Y-97090000D02*
G75*
G02*
X147465000Y-97090000I-50000J0D01*
G01*
X147465000Y-97090000D02*
G75*
G02*
X147565000Y-97090000I50000J0D01*
G01*
%TO.C,D1*%
X150565000Y-97090000D02*
G75*
G02*
X150465000Y-97090000I-50000J0D01*
G01*
X150465000Y-97090000D02*
G75*
G02*
X150565000Y-97090000I50000J0D01*
G01*
D11*
%TO.C,R2*%
X147110000Y-92153641D02*
X147110000Y-91846359D01*
X147870000Y-92153641D02*
X147870000Y-91846359D01*
%TO.C,SW1*%
X134795000Y-92020000D02*
X141255000Y-92020000D01*
X134795000Y-92050000D02*
X134795000Y-92020000D01*
X134795000Y-93950000D02*
X134795000Y-96550000D01*
X134795000Y-98480000D02*
X134795000Y-98450000D01*
X134795000Y-98480000D02*
X141255000Y-98480000D01*
X141255000Y-92020000D02*
X141255000Y-92050000D01*
X141255000Y-93950000D02*
X141255000Y-96550000D01*
X141255000Y-98480000D02*
X141255000Y-98450000D01*
%TO.C,BT1*%
X123300000Y-75150000D02*
X123300000Y-76700000D01*
X123300000Y-82850000D02*
X123300000Y-81300000D01*
X124850000Y-84000000D02*
X124850000Y-86000000D01*
X125850000Y-85000000D02*
X123850000Y-85000000D01*
X126500000Y-70650000D02*
X126500000Y-75150000D01*
X126500000Y-70650000D02*
X149200000Y-70650000D01*
X126500000Y-75150000D02*
X123300000Y-75150000D01*
X126500000Y-82850000D02*
X123300000Y-82850000D01*
X126500000Y-85550000D02*
X126500000Y-82850000D01*
X128300000Y-87350000D02*
X126500000Y-85550000D01*
X149200000Y-70650000D02*
X149200000Y-75150000D01*
X149200000Y-75150000D02*
X152400000Y-75150000D01*
X149200000Y-82850000D02*
X152400000Y-82850000D01*
X149200000Y-87350000D02*
X128300000Y-87350000D01*
X149200000Y-87350000D02*
X149200000Y-82850000D01*
X152400000Y-75150000D02*
X152400000Y-76700000D01*
X152400000Y-82850000D02*
X152400000Y-81300000D01*
%TD*%
M02*
