%TF.GenerationSoftware,KiCad,Pcbnew,8.0.1*%
%TF.CreationDate,2024-04-22T22:39:20-04:00*%
%TF.ProjectId,Simple_LED,53696d70-6c65-45f4-9c45-442e6b696361,rev?*%
%TF.SameCoordinates,Original*%
%TF.FileFunction,Copper,L1,Top*%
%TF.FilePolarity,Positive*%
%FSLAX46Y46*%
G04 Gerber Fmt 4.6, Leading zero omitted, Abs format (unit mm)*
G04 Created by KiCad (PCBNEW 8.0.1) date 2024-04-22 22:39:20*
%MOMM*%
%LPD*%
G01*
G04 APERTURE LIST*
G04 Aperture macros list*
%AMRoundRect*
0 Rectangle with rounded corners*
0 $1 Rounding radius*
0 $2 $3 $4 $5 $6 $7 $8 $9 X,Y pos of 4 corners*
0 Add a 4 corners polygon primitive as box body*
4,1,4,$2,$3,$4,$5,$6,$7,$8,$9,$2,$3,0*
0 Add four circle primitives for the rounded corners*
1,1,$1+$1,$2,$3*
1,1,$1+$1,$4,$5*
1,1,$1+$1,$6,$7*
1,1,$1+$1,$8,$9*
0 Add four rect primitives between the rounded corners*
20,1,$1+$1,$2,$3,$4,$5,0*
20,1,$1+$1,$4,$5,$6,$7,0*
20,1,$1+$1,$6,$7,$8,$9,0*
20,1,$1+$1,$8,$9,$2,$3,0*%
G04 Aperture macros list end*
%TA.AperFunction,SMDPad,CuDef*%
%ADD10RoundRect,0.135000X0.185000X-0.135000X0.185000X0.135000X-0.185000X0.135000X-0.185000X-0.135000X0*%
%TD*%
%TA.AperFunction,SMDPad,CuDef*%
%ADD11RoundRect,0.147500X0.172500X-0.147500X0.172500X0.147500X-0.172500X0.147500X-0.172500X-0.147500X0*%
%TD*%
%TA.AperFunction,SMDPad,CuDef*%
%ADD12R,1.550000X1.300000*%
%TD*%
%TA.AperFunction,SMDPad,CuDef*%
%ADD13R,2.600000X3.600000*%
%TD*%
%TA.AperFunction,Conductor*%
%ADD14C,0.350000*%
%TD*%
G04 APERTURE END LIST*
D10*
%TO.P,R1,1*%
%TO.N,Net-(D1-A)*%
X150490000Y-92510000D03*
%TO.P,R1,2*%
%TO.N,Net-(BT1--)*%
X150490000Y-91490000D03*
%TD*%
D11*
%TO.P,D2,1,K*%
%TO.N,Net-(D1-K)*%
X147515000Y-96485000D03*
%TO.P,D2,2,A*%
%TO.N,Net-(D2-A)*%
X147515000Y-95515000D03*
%TD*%
%TO.P,D1,1,K*%
%TO.N,Net-(D1-K)*%
X150515000Y-96485000D03*
%TO.P,D1,2,A*%
%TO.N,Net-(D1-A)*%
X150515000Y-95515000D03*
%TD*%
D10*
%TO.P,R2,1*%
%TO.N,Net-(D2-A)*%
X147490000Y-92510000D03*
%TO.P,R2,2*%
%TO.N,Net-(BT1--)*%
X147490000Y-91490000D03*
%TD*%
D12*
%TO.P,SW1,1,C*%
%TO.N,Net-(BT1-+)*%
X134050000Y-93000000D03*
X142000000Y-93000000D03*
%TO.P,SW1,2,D*%
%TO.N,Net-(D1-K)*%
X134050000Y-97500000D03*
X142000000Y-97500000D03*
%TD*%
D13*
%TO.P,BT1,1,+*%
%TO.N,Net-(BT1-+)*%
X123200000Y-79000000D03*
%TO.P,BT1,2,-*%
%TO.N,Net-(BT1--)*%
X152500000Y-79000000D03*
%TD*%
D14*
%TO.N,Net-(BT1-+)*%
X142000000Y-93000000D02*
X134050000Y-93000000D01*
X132000000Y-93000000D02*
X134050000Y-93000000D01*
X123200000Y-79000000D02*
X123200000Y-84200000D01*
X123200000Y-84200000D02*
X132000000Y-93000000D01*
%TO.N,Net-(BT1--)*%
X152500000Y-79000000D02*
X152500000Y-89480000D01*
X152500000Y-89480000D02*
X150490000Y-91490000D01*
X150490000Y-91490000D02*
X147490000Y-91490000D01*
%TO.N,Net-(D1-K)*%
X150515000Y-96485000D02*
X147515000Y-96485000D01*
X144500000Y-97500000D02*
X142000000Y-97500000D01*
X147515000Y-96485000D02*
X145515000Y-96485000D01*
X145515000Y-96485000D02*
X144500000Y-97500000D01*
X142000000Y-97500000D02*
X134050000Y-97500000D01*
%TO.N,Net-(D1-A)*%
X150490000Y-95490000D02*
X150515000Y-95515000D01*
X150490000Y-92510000D02*
X150490000Y-95490000D01*
%TO.N,Net-(D2-A)*%
X147490000Y-92510000D02*
X147490000Y-95490000D01*
X147490000Y-95490000D02*
X147515000Y-95515000D01*
%TD*%
M02*
